<svg width="19" height="20" viewBox="0 0 19 20" fill="none" xmlns="http://www.w3.org/2000/svg">
<path id="dex" fill-rule="evenodd" clip-rule="evenodd" d="M7.19378 1.21957C5.96078 1.83401 4.95202 2.35395 4.95223 2.3751C4.95278 2.42968 7.91147 3.86309 8.01648 3.8596C8.06425 3.85807 8.41079 3.70547 8.78652 3.52053L9.46978 3.18434L10.216 3.55127L10.9622 3.91827L12.1842 3.39298C14.0255 2.60146 14.2167 2.51473 14.1867 2.48559C14.1469 2.44692 13.4865 2.10751 11.6947 1.2051C10.8287 0.768947 9.98825 0.341317 9.82689 0.254787C9.66556 0.168256 9.51153 0.0986474 9.48463 0.0999948C9.45772 0.101342 8.42681 0.605158 7.19378 1.21957ZM1.78585 3.89854L0.502316 4.53277V7.31633C0.502316 8.8473 0.51917 10.0999 0.539844 10.0999C0.560446 10.0999 1.19195 9.83799 1.94315 9.51792L3.30898 8.93598V6.00193L3.97641 6.34978C4.49073 6.6176 5.00535 6.88486 5.52028 7.15158L6.3967 7.60552L6.78668 7.43682C7.03126 7.33085 7.27536 7.22385 7.51895 7.11582C7.70719 7.03196 8.16927 6.83286 8.54576 6.6733C8.92226 6.51367 9.27078 6.35314 9.32019 6.31656C9.38584 6.26796 8.58534 5.84478 6.35938 4.75128C4.68149 3.92701 3.25484 3.25523 3.18904 3.25845C3.12325 3.26167 2.49182 3.54967 1.78585 3.89854ZM14.418 4.07664C13.5439 4.45417 12.828 4.77814 12.8272 4.79662C12.8264 4.81507 13.3029 5.08608 13.8861 5.39877C14.4692 5.71153 14.9463 5.98414 14.9463 6.00467C14.9463 6.02515 14.4303 6.26433 13.7997 6.53627C13.169 6.80815 11.5749 7.49684 10.2571 8.0667L5.8418 9.97595C4.73112 10.4563 3.72997 10.8892 3.61703 10.9381C1.34841 11.9206 0.724857 12.1932 0.639225 12.24C0.553117 12.2871 0.533613 12.5608 0.518286 13.9345L0.5 15.573L1.6478 16.1324L2.79557 16.6919L4.38714 16.0048C5.26253 15.6269 5.97871 15.2979 5.97871 15.2736C5.97871 15.2495 5.81695 15.1487 5.61933 15.0495C5.42162 14.9503 5.01349 14.7308 4.71229 14.5616C4.41111 14.3924 4.11079 14.2371 4.04486 14.2165C3.97894 14.196 3.92597 14.16 3.92704 14.1366C3.92814 14.1132 4.629 13.7948 5.4844 13.4288C7.14587 12.7182 8.41735 12.1705 11.1471 10.9896C12.3677 10.4617 13.5885 9.93405 14.8094 9.40675C15.8824 8.94343 17.13 8.40229 17.5818 8.20425L18.4033 7.84417L18.4215 6.18707L18.4399 4.53003L17.2757 3.95842C16.6354 3.64406 16.0881 3.38762 16.0594 3.38855C16.0308 3.38942 15.2921 3.69903 14.418 4.07664ZM18.0914 10.0548C17.9198 10.135 17.581 10.2851 17.3384 10.3883C17.0958 10.4916 16.6354 10.6903 16.3154 10.83L15.7335 11.0839L15.7202 12.5386C15.7129 13.3388 15.6821 13.9898 15.6518 13.9856C15.5829 13.9758 14.4924 13.4408 13.3961 12.8789C12.6049 12.4733 12.5552 12.4572 12.3693 12.5453C12.2618 12.5962 11.6194 12.8719 10.9417 13.1579C10.264 13.4439 9.6874 13.6966 9.66028 13.7194C9.63323 13.7423 10.9972 14.4495 12.6914 15.2911L15.7717 16.8213L17.0875 16.1701C17.8111 15.812 18.4265 15.4854 18.4548 15.4443C18.5186 15.3519 18.5131 9.89641 18.4493 9.90378C18.424 9.90668 18.2629 9.97467 18.0914 10.0548ZM10.8048 16.4582C10.5765 16.5521 10.3484 16.6461 10.1202 16.7402C9.43137 17.0253 9.56637 17.0348 8.74682 16.6445C8.20097 16.3846 7.96568 16.3044 7.86355 16.3433C7.78695 16.3725 7.12765 16.6562 6.39834 16.9738C5.66908 17.2914 5.0471 17.5513 5.01616 17.5513C4.71019 17.5513 5.21887 17.842 7.18175 18.7892L9.48374 19.9L10.4523 19.4425C10.985 19.1909 12.0595 18.6871 12.8401 18.323C13.6206 17.9587 14.2496 17.6512 14.2378 17.6396C14.2259 17.6281 13.5719 17.3068 12.7844 16.9257L11.3524 16.2329L10.8048 16.4582Z" fill="white" />
</svg>
